# xmcd
#
# Track frame offsets:
#	150
#	4432
#	19246
#	36002
#	56117
#	59678
#	77247
#	95040
#	112407
#	130580
#	147310
#	150095
#	167075
#	185037
#	196443
#	198866
#
# Disc length: 2849 seconds
#
# Revision: 1
# Processed by: cddbd v1.5.2PL0 Copyright (c) Steve Scherf et al.
# Submitted via: audiograbber 1.83.01
#
DISCID=e70b1f10
DTITLE=Courtmasta and Chrizzo - Command and Conquer
DYEAR=2008
DGENRE=Hip-Hop
TTITLE0=Prolog
TTITLE1=Ding Dong
TTITLE2=Manchmal
TTITLE3=Bilder Pt. II
TTITLE4=Music
TTITLE5=Command and Conquer
TTITLE6=Die Geschichte einer Rose
TTITLE7=Superstars
TTITLE8=Embargo
TTITLE9=Dresscode
TTITLE10=Hiphop
TTITLE11=King of Rap
TTITLE12=Endloser Kampf (feat. Kando and Seek)
TTITLE13=Der Schuss
TTITLE14=Hidden Track 1
TTITLE15=Hidden Track 2
EXTD=
EXTT0=
EXTT1=
EXTT2=
EXTT3=
EXTT4=
EXTT5=
EXTT6=
EXTT7=
EXTT8=
EXTT9=
EXTT10=
EXTT11=
EXTT12=
EXTT13=
EXTT14=
EXTT15=
PLAYORDER=
